<svg xmlns="http://www.w3.org/2000/svg"><style>:root svg:not(:target){display:none}</style><svg viewBox="0 0 59 30" fill="none" id="arrow-big"><path d="m56.17 3-26.59 23.55-26.58-23.55" stroke="#0D0D0D" stroke-width="5" stroke-linecap="round" stroke-linejoin="round"></path></svg><svg viewBox="0 0 19 13" fill="none" id="arrow"><path d="m17.36 2-7.68 9-7.68-9" stroke="#fff" stroke-width="3" stroke-linecap="round" stroke-linejoin="round"></path></svg><svg viewBox="0 0 24 24" fill="none" id="check"><path d="m4 12.61 4.92 4.89 11.08-11" stroke="#fff" stroke-width="4" stroke-linecap="round" stroke-linejoin="round"></path></svg><svg viewBox="0 0 10 15" fill="none" id="shield"><path d="m6.44 5.24-2.15 2.85-1.07-1.42m5.9-.6c0 4.68-2.67 6.78-3.8 7.46h0c-.12.07-.18.1-.31.14h-.36a.91.91 0 0 1-.32-.14c-1.13-.68-3.8-2.78-3.8-7.46v-2.82c0-.8 0-1.2.12-1.5.1-.27.27-.5.47-.63.23-.15.53-.15 1.13-.15h5.15c.6 0 .9 0 1.14.15.2.14.36.36.47.62.11.3.11.7.11 1.5v2.83Z" stroke="#D8BFFD" stroke-linecap="round" stroke-linejoin="round"></path></svg><svg viewBox="0 0 18 19" fill="none" id="slider"><path d="m10.18 2 5.46 7.5-5.46 7.5m-8.18-15 5.45 7.5-5.45 7.5" stroke="#818181" stroke-width="3" stroke-linecap="round" stroke-linejoin="round"></path></svg></svg>